HIERARCHY
ROOT Hips
{
	OFFSET 0.000000 97.167313 0.000000
	CHANNELS 6 Xposition Yposition Zposition Xrotation Yrotation Zrotation
	JOINT Spine
	{
		OFFSET 0.000000 13.784798 0.064400
		CHANNELS 3 Xrotation Yrotation Zrotation
		JOINT Spine1
		{
			OFFSET 0.000000 12.037903 0.404700
			CHANNELS 3 Xrotation Yrotation Zrotation
			JOINT Spine2
			{
				OFFSET 0.000000 17.795601 0.420200
				CHANNELS 3 Xrotation Yrotation Zrotation
				JOINT Neck
				{
					OFFSET 0.000000 39.131302 11.954600
					CHANNELS 3 Xrotation Yrotation Zrotation
					JOINT Head
					{
						OFFSET 0.000000 14.456192 15.627699
						CHANNELS 3 Xrotation Yrotation Zrotation
						JOINT HeadTop_End
						{
							OFFSET 0.000000 15.703506 7.603401
							CHANNELS 3 Xrotation Yrotation Zrotation
							End Site
							{
								OFFSET 0.000000 17.447403 0.000000
							}
						}
					}
				}
				JOINT LeftShoulder
				{
					OFFSET 17.399500 24.608795 1.168800
					CHANNELS 3 Xrotation Yrotation Zrotation
					JOINT LeftArm
					{
						OFFSET 18.980635 5.765305 1.818600
						CHANNELS 3 Xrotation Yrotation Zrotation
						JOINT LeftForeArm
						{
							OFFSET 49.290169 0.000000 0.000000
							CHANNELS 3 Xrotation Yrotation Zrotation
							JOINT LeftHand
							{
								OFFSET 31.562012 0.000000 0.000000
								CHANNELS 3 Xrotation Yrotation Zrotation
								JOINT LeftHandThumb1
								{
									OFFSET 6.133995 -4.388519 7.076070
									CHANNELS 3 Xrotation Yrotation Zrotation
									JOINT LeftHandThumb2
									{
										OFFSET 6.037666 -3.485840 3.485847
										CHANNELS 3 Xrotation Yrotation Zrotation
										JOINT LeftHandThumb3
										{
											OFFSET 6.496506 -3.750763 3.750761
											CHANNELS 3 Xrotation Yrotation Zrotation
											JOINT LeftHandThumb4
											{
												OFFSET 5.616882 -3.242905 3.242910
												CHANNELS 3 Xrotation Yrotation Zrotation
												End Site
												{
													OFFSET -1.254608 7.132141 0.375429
												}
											}
										}
									}
								}
								JOINT LeftHandPinky1
								{
									OFFSET 18.920792 -0.453171 -11.426712
									CHANNELS 3 Xrotation Yrotation Zrotation
									JOINT LeftHandPinky2
									{
										OFFSET 4.919586 0.000000 0.000000
										CHANNELS 3 Xrotation Yrotation Zrotation
										JOINT LeftHandPinky3
										{
											OFFSET 5.233047 0.000000 0.000000
											CHANNELS 3 Xrotation Yrotation Zrotation
											JOINT LeftHandPinky4
											{
												OFFSET 5.571716 0.000000 0.000000
												CHANNELS 3 Xrotation Yrotation Zrotation
												End Site
												{
													OFFSET -3.459808 4.342407 -0.466164
												}
											}
										}
									}
								}
								JOINT LeftHandRing1
								{
									OFFSET 22.726120 -0.094986 -6.500475
									CHANNELS 3 Xrotation Yrotation Zrotation
									JOINT LeftHandRing2
									{
										OFFSET 6.408615 0.000000 0.000000
										CHANNELS 3 Xrotation Yrotation Zrotation
										JOINT LeftHandRing3
										{
											OFFSET 6.150223 0.000000 0.000000
											CHANNELS 3 Xrotation Yrotation Zrotation
											JOINT LeftHandRing4
											{
												OFFSET 6.145386 0.000000 0.000000
												CHANNELS 3 Xrotation Yrotation Zrotation
												End Site
												{
													OFFSET -3.671402 4.923981 -0.202372
												}
											}
										}
									}
								}
								JOINT LeftHandMiddle1
								{
									OFFSET 23.373947 0.000000 0.000001
									CHANNELS 3 Xrotation Yrotation Zrotation
									JOINT LeftHandMiddle2
									{
										OFFSET 6.996567 0.000000 0.000000
										CHANNELS 3 Xrotation Yrotation Zrotation
										JOINT LeftHandMiddle3
										{
											OFFSET 7.015945 0.000000 0.000000
											CHANNELS 3 Xrotation Yrotation Zrotation
											JOINT LeftHandMiddle4
											{
												OFFSET 7.721573 0.000000 0.000000
												CHANNELS 3 Xrotation Yrotation Zrotation
												End Site
												{
													OFFSET -4.651108 6.158463 0.251582
												}
											}
										}
									}
								}
								JOINT LeftHandIndex1
								{
									OFFSET 21.310577 -0.490082 6.209344
									CHANNELS 3 Xrotation Yrotation Zrotation
									JOINT LeftHandIndex2
									{
										OFFSET 7.536453 0.000000 0.000000
										CHANNELS 3 Xrotation Yrotation Zrotation
										JOINT LeftHandIndex3
										{
											OFFSET 7.512344 0.000000 0.000000
											CHANNELS 3 Xrotation Yrotation Zrotation
											JOINT LeftHandIndex4
											{
												OFFSET 10.212402 0.000000 0.000001
												CHANNELS 3 Xrotation Yrotation Zrotation
												End Site
												{
													OFFSET -5.180801 8.690506 1.388433
												}
											}
										}
									}
								}
							}
						}
					}
				}
				JOINT RightShoulder
				{
					OFFSET -17.399500 24.608795 1.168800
					CHANNELS 3 Xrotation Yrotation Zrotation
					JOINT RightArm
					{
						OFFSET -18.980635 5.765305 1.818600
						CHANNELS 3 Xrotation Yrotation Zrotation
						JOINT RightForeArm
						{
							OFFSET -49.290169 0.000000 0.000000
							CHANNELS 3 Xrotation Yrotation Zrotation
							JOINT RightHand
							{
								OFFSET -31.562012 0.000000 0.000000
								CHANNELS 3 Xrotation Yrotation Zrotation
								JOINT RightHandThumb1
								{
									OFFSET -6.133995 -4.388519 7.076070
									CHANNELS 3 Xrotation Yrotation Zrotation
									JOINT RightHandThumb2
									{
										OFFSET -6.037666 -3.485840 3.485847
										CHANNELS 3 Xrotation Yrotation Zrotation
										JOINT RightHandThumb3
										{
											OFFSET -6.496506 -3.750763 3.750761
											CHANNELS 3 Xrotation Yrotation Zrotation
											JOINT RightHandThumb4
											{
												OFFSET -5.616882 -3.242905 3.242910
												CHANNELS 3 Xrotation Yrotation Zrotation
												End Site
												{
													OFFSET 1.254608 7.132141 0.375429
												}
											}
										}
									}
								}
								JOINT RightHandIndex1
								{
									OFFSET -21.310577 -0.490082 6.209344
									CHANNELS 3 Xrotation Yrotation Zrotation
									JOINT RightHandIndex2
									{
										OFFSET -7.536453 0.000000 0.000000
										CHANNELS 3 Xrotation Yrotation Zrotation
										JOINT RightHandIndex3
										{
											OFFSET -7.512344 0.000000 0.000000
											CHANNELS 3 Xrotation Yrotation Zrotation
											JOINT RightHandIndex4
											{
												OFFSET -10.212402 0.000000 0.000001
												CHANNELS 3 Xrotation Yrotation Zrotation
												End Site
												{
													OFFSET 5.180801 8.690506 1.388433
												}
											}
										}
									}
								}
								JOINT RightHandMiddle1
								{
									OFFSET -23.373947 0.000000 0.000001
									CHANNELS 3 Xrotation Yrotation Zrotation
									JOINT RightHandMiddle2
									{
										OFFSET -6.996567 0.000000 0.000000
										CHANNELS 3 Xrotation Yrotation Zrotation
										JOINT RightHandMiddle3
										{
											OFFSET -7.015945 0.000000 0.000000
											CHANNELS 3 Xrotation Yrotation Zrotation
											JOINT RightHandMiddle4
											{
												OFFSET -7.721573 0.000000 0.000000
												CHANNELS 3 Xrotation Yrotation Zrotation
												End Site
												{
													OFFSET 4.651108 6.158463 0.251582
												}
											}
										}
									}
								}
								JOINT RightHandRing1
								{
									OFFSET -22.726120 -0.094986 -6.500475
									CHANNELS 3 Xrotation Yrotation Zrotation
									JOINT RightHandRing2
									{
										OFFSET -6.408615 0.000000 0.000000
										CHANNELS 3 Xrotation Yrotation Zrotation
										JOINT RightHandRing3
										{
											OFFSET -6.150223 0.000000 0.000000
											CHANNELS 3 Xrotation Yrotation Zrotation
											JOINT RightHandRing4
											{
												OFFSET -6.145386 0.000000 0.000000
												CHANNELS 3 Xrotation Yrotation Zrotation
												End Site
												{
													OFFSET 3.671402 4.923981 -0.202372
												}
											}
										}
									}
								}
								JOINT RightHandPinky1
								{
									OFFSET -18.920792 -0.453171 -11.426712
									CHANNELS 3 Xrotation Yrotation Zrotation
									JOINT RightHandPinky2
									{
										OFFSET -4.919586 0.000000 0.000000
										CHANNELS 3 Xrotation Yrotation Zrotation
										JOINT RightHandPinky3
										{
											OFFSET -5.233047 0.000000 0.000000
											CHANNELS 3 Xrotation Yrotation Zrotation
											JOINT RightHandPinky4
											{
												OFFSET -5.571716 0.000000 0.000000
												CHANNELS 3 Xrotation Yrotation Zrotation
												End Site
												{
													OFFSET 3.459808 4.342407 -0.466164
												}
											}
										}
									}
								}
							}
						}
					}
				}
			}
		}
	}
	JOINT LeftUpLeg
	{
		OFFSET 19.899099 -7.885101 -3.429500
		CHANNELS 3 Xrotation Yrotation Zrotation
		JOINT LeftLeg
		{
			OFFSET 1.745560 -36.997807 10.304700
			CHANNELS 3 Xrotation Yrotation Zrotation
			JOINT LeftFoot
			{
				OFFSET -1.745558 -29.803308 -13.615400
				CHANNELS 3 Xrotation Yrotation Zrotation
				JOINT LeftToeBase
				{
					OFFSET 1.181900 -18.539904 15.226099
					CHANNELS 3 Xrotation Yrotation Zrotation
					JOINT LeftToe_End
					{
						OFFSET -0.863701 1.402801 16.534700
						CHANNELS 3 Xrotation Yrotation Zrotation
						End Site
						{
							OFFSET 0.000000 16.616566 0.000000
						}
					}
				}
			}
		}
	}
	JOINT RightUpLeg
	{
		OFFSET -19.899099 -7.885101 -3.429500
		CHANNELS 3 Xrotation Yrotation Zrotation
		JOINT RightLeg
		{
			OFFSET -1.745560 -36.997807 10.304700
			CHANNELS 3 Xrotation Yrotation Zrotation
			JOINT RightFoot
			{
				OFFSET 1.745558 -29.803308 -13.615400
				CHANNELS 3 Xrotation Yrotation Zrotation
				JOINT RightToeBase
				{
					OFFSET -1.181900 -18.539904 15.226099
					CHANNELS 3 Xrotation Yrotation Zrotation
					JOINT RightToe_End
					{
						OFFSET 0.863701 1.402801 16.534700
						CHANNELS 3 Xrotation Yrotation Zrotation
						End Site
						{
							OFFSET 0.000000 16.616566 0.000000
						}
					}
				}
			}
		}
	}
}
MOTION
Frames: 5
Frame Time: 0.033333
3.502749 90.419373 1.810430 -1.864526 7.736161 -2.574161 1.801562 -0.566484 1.606978 1.604729 0.049449 3.518973 1.609149 0.155856 3.489887 2.549697 -2.585723 3.200288 -12.563206 -3.478879 -3.371269 0.000000 -0.000000 0.000000 -0.291688 -10.852243 -17.310585 10.918184 -8.209497 -51.725545 0.000003 -21.838010 -0.000005 -21.906809 7.797374 -8.196863 -6.000713 -6.126812 4.616771 7.230355 21.960016 2.178854 -5.596085 12.091052 16.242912 0.000001 -0.000002 0.000004 4.243230 17.490859 -25.349475 0.745285 2.861407 -29.192522 0.087708 1.011002 -9.916116 0.000000 0.000000 -0.000002 2.890020 10.489003 -21.682968 0.280404 1.792429 -17.780816 0.087721 1.011072 -9.916832 -0.000000 0.000001 0.000002 0.422577 4.377979 -20.122316 0.279847 1.790692 -17.763015 0.087706 1.011001 -9.916125 -0.000000 -0.000000 0.000004 -2.034560 -4.751704 -15.395224 0.279845 1.790696 -17.763029 0.087708 1.010999 -9.916115 -0.000001 0.000001 0.000001 4.700973 -0.327113 5.020205 8.003210 9.180098 58.731786 0.000006 22.125254 -0.000020 -2.133763 0.763836 18.719276 -6.901945 8.181172 -4.018451 7.464522 -23.792682 -2.837986 -4.037343 -18.149544 -17.326556 0.000002 0.000000 -0.000003 -1.992637 5.229595 14.550682 0.223271 -1.426130 17.794936 0.069983 -0.805197 9.934757 -0.000000 -0.000003 0.000003 0.314665 -3.835305 19.453658 0.223276 -1.426135 17.794924 0.069989 -0.805199 9.934754 -0.000000 0.000000 0.000003 2.703316 -9.946669 21.118605 0.223716 -1.427513 17.812773 0.069995 -0.805270 9.935462 -0.000001 0.000002 0.000000 3.960659 -16.894481 24.893768 0.594451 -2.278658 29.239289 0.069995 -0.805207 9.934771 0.000001 -0.000005 0.000003 -11.731311 9.492959 18.980469 19.657016 -9.177630 6.085760 -10.566006 -3.319829 -18.235727 -2.086151 0.000002 -0.000007 -0.000000 -0.000000 0.000000 0.741112 -5.113327 6.411865 18.273305 -8.636622 3.925052 -17.688255 -4.194135 -4.914587 -2.698767 -0.000004 -0.000002 0.000000 -0.000001 0.000000 
3.526934 90.407639 1.771415 -1.904440 7.654701 -2.585940 1.793500 -0.624885 1.602453 1.599219 0.009611 3.517135 1.603565 0.116154 3.488021 2.622930 -2.597183 3.216896 -12.135960 -3.594301 -3.285713 0.000001 -0.000000 0.000000 -0.237062 -10.791461 -17.061924 9.310292 -9.618221 -52.300876 -0.476224 -19.440793 -1.083435 -21.550092 7.394185 -6.694837 -6.000708 -6.126811 4.616761 7.230357 21.960028 2.178873 -5.596073 12.091054 16.242873 -0.000001 -0.000001 0.000007 4.304965 17.539180 -26.884712 0.922713 3.157666 -32.570819 0.116384 1.163124 -11.427308 0.000000 0.000000 -0.000002 3.107902 10.544557 -23.290617 0.391640 2.107860 -21.048695 0.116398 1.163205 -11.428127 -0.000000 0.000000 -0.000002 0.484327 4.538654 -21.806270 0.390390 2.104612 -21.014703 0.116377 1.163126 -11.427311 0.000001 -0.000000 0.000001 -2.031171 -4.445260 -17.183578 0.390390 2.104609 -21.014701 0.116378 1.163119 -11.427298 -0.000001 0.000001 0.000001 4.701593 -0.330480 5.023455 7.940313 9.294048 58.757051 0.000004 22.025243 0.000010 -2.115717 0.771070 18.769512 -6.805459 8.058345 -3.975125 7.491170 -24.023773 -2.854014 -4.020551 -18.325707 -17.361632 -0.000002 0.000003 -0.000001 -1.991237 5.224262 14.618147 0.232311 -1.453980 18.154569 0.070833 -0.810026 9.994787 0.000002 -0.000005 -0.000006 0.316513 -3.840509 19.521350 0.232314 -1.453978 18.154588 0.070826 -0.810027 9.994773 -0.000002 0.000000 -0.000008 2.712442 -9.949019 21.186914 0.232788 -1.455426 18.173269 0.070846 -0.810080 9.995519 -0.000003 0.000001 -0.000007 3.963080 -16.899483 24.962070 0.608849 -2.304150 29.599274 0.070836 -0.810026 9.994789 -0.000000 0.000004 0.000001 -11.701393 9.491067 18.988915 19.736369 -9.106217 6.095514 -10.623122 -3.303788 -18.250129 -2.080481 -0.000008 0.000001 -0.000000 0.000000 0.000000 0.700064 -5.115809 6.398808 18.340781 -8.559029 3.923395 -17.669322 -4.190448 -4.918359 -2.712455 -0.000003 -0.000000 0.000000 -0.000000 0.000000 
3.553949 90.398979 1.735199 -1.953130 7.629239 -2.596493 1.764599 -0.708935 1.598678 1.581486 -0.047467 3.514066 1.585751 0.059221 3.484933 2.717335 -2.599385 3.211583 -11.484428 -3.689519 -3.223303 -0.000000 -0.000000 0.000000 -0.177136 -10.699851 -16.770440 7.959034 -11.356094 -52.856297 -1.597713 -17.964195 -2.124768 -21.091429 6.711303 -4.917215 -6.000714 -6.126811 4.616731 7.230354 21.960016 2.178885 -5.596084 12.091055 16.242885 -0.000002 -0.000000 0.000003 4.378607 17.553217 -28.823709 1.149585 3.486875 -36.484135 0.155326 1.341439 -13.209266 0.000001 0.000001 0.000001 3.385641 10.596241 -25.373728 0.538260 2.454856 -24.730701 0.155353 1.341531 -13.210219 -0.000000 -0.000001 0.000005 0.574106 4.750170 -24.054801 0.536022 2.450001 -24.678491 0.155326 1.341440 -13.209284 0.000000 0.000000 0.000008 -2.036711 -3.958456 -19.647707 0.536026 2.450003 -24.678460 0.155324 1.341436 -13.209296 0.000001 0.000000 -0.000002 4.704595 -0.352281 5.036008 7.900545 9.365866 58.786578 -0.000000 21.949588 0.000016 -2.058345 0.752110 18.806760 -6.534946 7.713021 -3.851423 7.565951 -24.673449 -2.898698 -3.973833 -18.820952 -17.460048 -0.000002 0.000001 -0.000000 -1.987290 5.209281 14.807854 0.258658 -1.531950 19.165530 0.073239 -0.823549 10.163553 -0.000000 -0.000001 0.000001 0.321720 -3.855089 19.711800 0.258651 -1.531959 19.165518 0.073231 -0.823551 10.163543 -0.000002 0.000002 -0.000004 2.738111 -9.955506 21.379100 0.259217 -1.533580 19.186614 0.073251 -0.823612 10.164267 0.000001 0.000001 -0.000005 3.969933 -16.913505 25.154152 0.650161 -2.375354 30.611207 0.073241 -0.823560 10.163533 -0.000000 -0.000003 0.000000 -11.701632 9.485707 18.999481 19.826472 -9.091160 6.084227 -10.662600 -3.300981 -18.235056 -2.067114 0.000001 0.000004 -0.000000 0.000000 0.000000 0.693397 -5.112946 6.392354 18.391039 -8.538306 3.909324 -17.658722 -4.197252 -4.894451 -2.690640 0.000003 0.000001 0.000000 -0.000000 0.000000 
3.584368 90.391533 1.709600 -2.006186 7.637576 -2.599441 1.698163 -0.787997 1.596160 1.539277 -0.101522 3.511042 1.543473 0.005331 3.481891 2.842079 -2.591624 3.183655 -10.487368 -3.754407 -3.186946 0.000000 0.000000 0.000000 -0.115904 -10.541539 -16.478158 6.625563 -13.293911 -53.443724 -2.978142 -16.731450 -3.068294 -20.369089 5.215630 -3.241554 -6.000714 -6.126810 4.616746 7.230351 21.960025 2.178885 -5.596079 12.091050 16.242880 -0.000001 -0.000003 0.000002 4.447861 17.599014 -30.566773 1.381241 3.779498 -40.138638 0.196313 1.505332 -14.858885 0.000002 -0.000000 -0.000004 3.634845 10.638832 -27.224489 0.697103 2.773507 -28.212175 0.196333 1.505435 -14.859908 -0.000000 0.000001 0.000003 0.659670 4.932675 -26.027850 0.693740 2.767243 -28.142640 0.196303 1.505331 -14.858882 0.000001 0.000000 0.000009 -2.010965 -3.574653 -21.782312 0.693739 2.767241 -28.142669 0.196304 1.505330 -14.858878 -0.000001 0.000001 0.000001 4.709077 -0.382839 5.055646 7.918021 9.367341 58.825428 -0.000002 21.894706 0.000001 -1.987820 0.708257 18.847046 -6.118758 7.179092 -3.655028 7.681220 -25.677606 -2.966367 -3.903139 -19.586488 -17.611872 -0.000002 0.000002 -0.000001 -1.981091 5.186169 15.101097 0.302058 -1.651514 20.728159 0.077040 -0.844445 10.424355 -0.000002 -0.000001 0.000001 0.329873 -3.877596 20.006150 0.302065 -1.651518 20.728147 0.077037 -0.844459 10.424344 0.000003 0.000001 -0.000009 2.777762 -9.965237 21.676114 0.302781 -1.653401 20.752966 0.077048 -0.844513 10.425106 -0.000002 0.000002 -0.000003 3.980631 -16.935133 25.451085 0.716473 -2.483922 32.175450 0.077038 -0.844453 10.424343 0.000002 0.000001 -0.000001 -11.703153 9.473407 19.003055 19.910749 -9.098236 6.065946 -10.687196 -3.300635 -18.219408 -2.052989 0.000004 0.000002 0.000000 -0.000000 0.000000 0.713823 -5.115205 6.378934 18.436318 -8.545425 3.894266 -17.665162 -4.207996 -4.856916 -2.650745 0.000002 0.000002 0.000000 0.000000 0.000000 
3.619496 90.381599 1.694640 -2.078690 7.660301 -2.594620 1.607298 -0.837460 1.595330 1.480200 -0.136007 3.510093 1.484351 -0.028951 3.480907 3.002670 -2.573972 3.141272 -9.173929 -3.779140 -3.161452 0.000000 0.000000 -0.000000 -0.056176 -10.317107 -16.208947 5.436032 -15.508728 -53.964638 -3.805857 -16.318036 -3.851273 -19.455524 3.393141 -1.695505 -6.000708 -6.126813 4.616760 7.230351 21.960020 2.178877 -5.596072 12.091060 16.242875 -0.000000 0.000001 0.000001 4.503015 17.728540 -31.513304 1.557155 3.978302 -42.738594 0.226635 1.615279 -15.972667 -0.000000 0.000000 -0.000006 3.768314 10.676854 -28.134881 0.831582 3.010466 -30.877151 0.226671 1.615391 -15.973794 0.000000 0.000001 0.000003 0.698742 5.010903 -26.883888 0.827244 3.003214 -30.794434 0.226634 1.615278 -15.972686 -0.000001 -0.000001 0.000004 -1.956549 -3.563640 -22.580416 0.827246 3.003214 -30.794454 0.226635 1.615273 -15.972665 -0.000002 0.000004 0.000004 4.711574 -0.400964 5.066063 7.985909 9.310887 58.887815 0.000006 21.822652 -0.000005 -1.911805 0.657260 18.898637 -5.585538 6.490534 -3.392626 7.829343 -26.972277 -3.051086 -3.814724 -20.573616 -17.807271 0.000001 -0.000002 -0.000004 -1.972917 5.156418 15.479066 0.362807 -1.803822 22.742817 0.082062 -0.871364 10.760581 -0.000003 -0.000001 -0.000001 0.340545 -3.906551 20.385567 0.362808 -1.803818 22.742824 0.082066 -0.871372 10.760562 -0.000001 -0.000002 -0.000002 2.828868 -9.977252 22.059025 0.363740 -1.806043 22.772406 0.082083 -0.871435 10.761333 0.000001 -0.000001 -0.000003 3.994587 -16.962946 25.833850 0.806304 -2.621152 34.192275 0.082071 -0.871363 10.760563 -0.000003 0.000000 0.000001 -11.679696 9.460377 18.998444 19.996168 -9.112035 6.048377 -10.711589 -3.301559 -18.196345 -2.049561 -0.000001 -0.000002 -0.000000 0.000000 0.000000 0.763595 -5.123830 6.362292 18.495819 -8.562644 3.874653 -17.694966 -4.217484 -4.818579 -2.619656 0.000007 -0.000000 0.000000 0.000000 0.000000 
